<svg xmlns="http://www.w3.org/2000/svg" viewBox="0 0 1200 630" width="1200" height="630">
  <!-- Background -->
  <rect width="1200" height="630" fill="#1a6b3a"/>
  <!-- Decorative circles (right) -->
  <circle cx="1080" cy="315" r="310" fill="rgba(255,255,255,0.03)"/>
  <circle cx="1080" cy="315" r="220" fill="rgba(255,255,255,0.04)"/>
  <circle cx="1080" cy="315" r="130" fill="rgba(255,255,255,0.05)"/>
  <!-- Horse silhouette (large, top-left area) -->
  <g transform="translate(60, 60) scale(16)">
    <path fill="rgba(255,255,255,0.1)" d="M10,26 C9,24 7,22 7,19 C7,15 10,12 13,10 C14,8 15,7 15,6 L14,4 L17,3 L19,5 L18,7 C21,10 24,14 23,20 C22,23 20,26 17,27 C14,27 11,26 10,26 Z"/>
  </g>
  <!-- Logo box -->
  <rect x="72" y="100" width="80" height="80" rx="18" fill="rgba(255,255,255,0.15)"/>
  <g transform="translate(72, 100) scale(2.5)">
    <path fill="white" d="M10,26 C9,24 7,22 7,19 C7,15 10,12 13,10 C14,8 15,7 15,6 L14,4 L17,3 L19,5 L18,7 C21,10 24,14 23,20 C22,23 20,26 17,27 C14,27 11,26 10,26 Z"/>
    <circle cx="13" cy="13" r="1.5" fill="rgba(26,107,58,0.8)"/>
  </g>
  <!-- Gold accent -->
  <rect x="72" y="202" width="80" height="4" rx="2" fill="#c8a400"/>
  <!-- Site name -->
  <text x="72" y="300" font-family="Arial Black, Helvetica Neue, sans-serif" font-weight="900" font-size="82" fill="white" letter-spacing="-1">bankotahminleri.com</text>
  <!-- Divider -->
  <rect x="72" y="325" width="700" height="3" rx="1.5" fill="rgba(255,255,255,0.3)"/>
  <!-- Tagline -->
  <text x="72" y="382" font-family="Arial, Helvetica, sans-serif" font-size="34" fill="rgba(255,255,255,0.82)" letter-spacing="0.3">Türkiye'nin At Yarisi Tahmin &amp; Analiz Platformu</text>
  <!-- Feature pills -->
  <rect x="72" y="428" width="216" height="46" rx="23" fill="rgba(255,255,255,0.13)"/>
  <text x="180" y="457" font-family="Arial, sans-serif" font-size="20" fill="rgba(255,255,255,0.9)" text-anchor="middle">TJK Gunluk Program</text>

  <rect x="304" y="428" width="174" height="46" rx="23" fill="rgba(255,255,255,0.13)"/>
  <text x="391" y="457" font-family="Arial, sans-serif" font-size="20" fill="rgba(255,255,255,0.9)" text-anchor="middle">AGF Tablosu</text>

  <rect x="494" y="428" width="186" height="46" rx="23" fill="rgba(255,255,255,0.13)"/>
  <text x="587" y="457" font-family="Arial, sans-serif" font-size="20" fill="rgba(255,255,255,0.9)" text-anchor="middle">Yaris Sonuclari</text>

  <rect x="696" y="428" width="202" height="46" rx="23" fill="rgba(200,164,0,0.35)"/>
  <text x="797" y="457" font-family="Arial, sans-serif" font-size="20" fill="#ffd700" text-anchor="middle">Kupon Hesaplama</text>
  <!-- Bottom bar -->
  <rect x="0" y="574" width="1200" height="56" fill="rgba(0,0,0,0.22)"/>
  <text x="600" y="609" font-family="Arial, sans-serif" font-size="18" fill="rgba(255,255,255,0.5)" text-anchor="middle">www.bankotahminleri.com  ·  Ucretsiz  ·  Kayitsiz  ·  TJK Resmi Verisi</text>
</svg>
